HIERARCHY
ROOT Hip
{
	OFFSET 0 0 0
	CHANNELS 6 Xposition Yposition Zposition Zrotation Yrotation Xrotation
	JOINT ShoulderCenter
	{
		OFFSET 0 0.4363 0
		CHANNELS 3 Zrotation Yrotation Xrotation
		JOINT Head
		{
			OFFSET 0 0.1849 0
			CHANNELS 3 Zrotation Yrotation Xrotation
			End Site
			{
				OFFSET 0.0 0.0891 0.0
			}
		}
		JOINT ShoulderLeft
		{
			OFFSET -0.14 0 0
			CHANNELS 3 Zrotation Yrotation Xrotation
			JOINT ElbowLeft
			{
				OFFSET -0.25 0 0
				CHANNELS 3 Zrotation Yrotation Xrotation
				JOINT WristLeft
				{
					OFFSET -0.23 0 0
					CHANNELS 3 Zrotation Yrotation Xrotation
					End Site
					{
						OFFSET -0.0832 0.0 0.0
					}
				}
			}
		}
		JOINT ShoulderRight
		{
			OFFSET 0.14 0 0
			CHANNELS 3 Zrotation Yrotation Xrotation
			JOINT ElbowRight
			{
				OFFSET 0.25 0 0
				CHANNELS 3 Zrotation Yrotation Xrotation
				JOINT WristRight
				{
					OFFSET 0.23 0 0
					CHANNELS 3 Zrotation Yrotation Xrotation
					End Site
					{
						OFFSET 0.0832 0.0 0.0
					}
				}
			}
		}
	}
	JOINT HipLeft
	{
		OFFSET -0.0952 0 0
		CHANNELS 3 Zrotation Yrotation Xrotation
		JOINT KneeLeft
		{
			OFFSET 0 -0.3732 0
			CHANNELS 3 Zrotation Yrotation Xrotation
			JOINT AnkleLeft
			{
				OFFSET 0 -0.346 0
				CHANNELS 3 Zrotation Yrotation Xrotation
				End Site
				{
					OFFSET 0.0 0.0 0.0891
				}
			}
		}
	}
	JOINT HipRight
	{
		OFFSET 0.0952 0 0
		CHANNELS 3 Zrotation Yrotation Xrotation
		JOINT KneeRight
		{
			OFFSET 0 -0.3732 0
			CHANNELS 3 Zrotation Yrotation Xrotation
			JOINT AnkleRight
			{
				OFFSET 0 -0.346 0
				CHANNELS 3 Zrotation Yrotation Xrotation
				End Site
				{
					OFFSET 0.0 0.0 0.0891
				}
			}
		}
	}
}
MOTION
Frames: 32
Frame Time: 0.033333
8.40344e-006 3.87656e-005 -0.00223547 5.28067 -36.7298 -10.5222 10.2598 -11.941 6.9025 0 0 0 13.1958 37.3199 -14.7103 -1.00121 20.2926 -0.445779 0 0 0 -82.4408 17.5914 28.2176 5.55987e-006 -24.474 -5.17408e-006 0 0 0 5.77422 -7.60034 8.83872 22.8409 4.71892 -28.5598 0 0 0 -4.21607 -8.13782 -41.3223 -8.99121 2.38455 120.874 0 0 0 
1.51242e-005 3.87656e-005 -0.00223547 7.51821 -35.5635 -10.3637 9.5066 -11.7218 5.95795 -6.37472e-007 4.323e-007 -1.134e-008 11.2887 37.3014 -16.2155 -2.62097 17.2615 -0.8865 0 0 0 -82.5565 17.0493 28.6721 2.93225e-006 -24.1445 -1.39417e-006 -1.00467e-006 -1.14487e-006 4.47868e-007 3.38069 -8.79803 6.34374 25.1112 4.97147 -25.5856 -2.91207e-007 1.49761e-007 8.50505e-007 -19.0349 17.4274 -34.241 -2.33592 -2.66411 96.2345 0 0 0 
1.51242e-005 3.87656e-005 -0.00223547 7.9808 -36.8027 -10.5299 12.8714 -12.9168 10.0588 -2.48758e-007 3.42122e-007 -2.32456e-008 4.92723 40.4387 -21.2488 -5.85946 15.8769 -1.47077 0 0 0 -86.4842 13.0179 23.3955 2.06082e-006 -22.4651 -2.74615e-006 0 0 0 2.48917 -9.34231 5.60277 27.0275 3.87028 -24.0087 0 0 0 -19.4265 25.6224 -32.8119 -0.89745 -1.46584 92.5607 3.57215e-007 2.06087e-007 -2.33994e-006 
1.5263e-005 2.79506e-005 -0.00225651 9.60296 -37.0517 -4.9118 11.4277 -10.0191 3.79051 0 0 0 6.10894 39.1749 -21.5078 -6.60258 14.6673 -1.65324 0 0 0 -81.5043 16.3939 23.1987 -3.75236e-006 -27.5798 3.40156e-006 0 0 0 4.9587 -8.70853 -4.55066 23.42 4.63354 -20.9345 0 0 0 -16.9263 25.3862 -29.955 1.4428 9.59767 77.6086 0 0 0 
1.62841e-005 1.70532e-005 -0.00225758 11.1057 -34.3437 -3.36951 10.7891 -11.7028 3.41759 -2.4941e-007 4.74816e-007 -9.34017e-008 2.14838 36.859 -25.8734 -5.16326 15.1708 -1.87658 0 0 0 -79.4103 15.646 27.5852 -1.66546e-007 -31.0159 -2.39839e-006 0 0 0 5.04406 -9.30741 -6.931 23.5037 5.15267 -21.7194 -1.56829e-007 1.87523e-007 8.81246e-007 -19.2024 22.1061 -32.8163 1.63384 9.8129 77.1387 0 0 0 
1.62841e-005 8.79828e-006 -0.00225758 11.3479 -33.6058 -2.99322 11.4851 -12.8793 4.39368 -2.0083e-007 4.36803e-007 3.1753e-008 -0.672987 37.0052 -28.5101 -4.83728 14.6966 -1.90065 0 0 0 -79.315 13.7042 27.951 -5.77072e-006 -26.7023 8.70676e-006 0 0 0 4.60553 -9.83784 -8.01379 24.5547 5.65881 -20.7184 0 0 0 -17.7397 26.2849 -31.9583 0.798698 9.25273 77.913 0 0 0 
2.06775e-005 -2.21116e-005 -0.00225758 15.3943 -30.4719 -0.237545 8.8892 -12.6162 -1.17103 -2.23328e-007 5.98858e-007 2.55737e-008 -7.93399 29.3198 -32.2682 4.01891 15.1402 -1.81695 0 0 0 -68.9759 20.6927 37.6982 -3.80706e-006 -40.2002 6.35912e-006 0 0 0 1.7006 -15.1158 -15.7271 27.1845 0.723056 -17.951 0 0 0 5.42605 -11.0283 -37.3669 1.11297 7.7514 25.725 2.03625e-008 1.11815e-006 1.2584e-007 
3.03506e-005 -2.68456e-005 -0.00225486 16.8104 -27.7939 -0.30934 10.8949 -16.5664 2.81183 0 0 0 -15.0593 29.8013 -39.6907 3.48334 14.0957 -1.92691 0 0 0 -71.7679 16.912 32.2489 1.04939e-005 -34.1045 -9.19849e-006 0 0 0 -0.330059 -13.7809 -18.5284 22.4247 -1.12279 -17.7038 0 0 0 4.09371 -13.4311 -39.9349 3.94256 8.51495 30.7251 -7.06167e-007 1.29696e-006 8.79906e-008 
4.51843e-005 -3.21955e-005 -0.0022502 19.8554 -25.9481 0.224972 10.3117 -18.2557 2.28739 0 0 0 -15.5838 32.7475 -41.3485 -3.14671 11.3463 -2.16555 -3.57413e-007 1.10938e-007 1.27292e-006 -71.4063 17.1184 31.9214 1.00749e-005 -34.1991 -1.10072e-005 0 0 0 -3.91265 -16.834 -22.4504 22.9545 -1.54135 -13.1793 -4.64094e-007 1.24403e-007 1.01049e-006 2.2307 -13.6817 -41.0921 0.151786 10.3271 27.2643 -9.24602e-008 1.34862e-006 1.59957e-007 
5.32254e-005 -3.21955e-005 -0.00224667 22.2574 -24.9711 0.854417 9.68219 -16.9236 1.19638 0 0 0 -17.096 33.4478 -42.3985 -3.39986 9.48119 -1.55609 0 0 0 -70.8926 17.2015 34.8016 -1.56611e-006 -34.1998 1.03931e-006 0 0 0 -6.89808 -18.08 -24.5339 22.9955 -1.5042 -11.6206 0 0 0 -0.0908073 -14.0378 -43.0756 -0.522049 10.6765 27.2757 0 0 0 
6.33377e-005 -3.21955e-005 -0.0022419 24.056 -22.8439 0.579528 10.0134 -17.6647 1.86676 0 0 0 -20.34 33.4415 -44.7284 -2.82063 10.7029 -1.47157 0 0 0 -71.2139 18.1105 37.4998 -7.00126e-006 -27.0748 5.95399e-006 0 0 0 -9.88282 -18.977 -24.1453 22.0414 -2.69958 -13.3642 0 0 0 -2.51828 -17.5597 -44.7418 1.74242 12.1217 29.2115 -1.83196e-007 1.47183e-006 1.50923e-007 
8.4012e-005 -2.79178e-005 -0.00223726 27.0706 -18.6749 0.108245 9.20134 -16.6478 0.968789 0 0 0 -23.9096 24.6858 -44.7402 3.47933 14.3682 -1.46917 0 0 0 -69.6428 19.8821 36.9017 -7.11605e-006 -33.5648 8.52746e-006 0 0 0 -14.2579 -23.0112 -22.8928 25.7145 -2.52522 -10.7851 0 0 0 -5.89462 -24.5158 -48.2979 5.53319 15.5606 33.5565 0 0 0 
9.39341e-005 -7.47341e-006 -0.0022372 31.3187 -20.6963 1.35736 5.17787 -13.1463 -4.32475 0 0 0 -20.7911 33.3459 -41.3312 -6.71645 7.42024 -1.26359 0 0 0 -67.3105 24.0659 39.1629 -1.38135e-008 -35.5595 3.29488e-006 0 0 0 -18.9956 -21.5549 -25.2844 27.8373 -1.06929 -13.9197 -3.46186e-007 3.96574e-007 1.08798e-006 -10.274 -27.9389 -59.0807 13.1996 9.02062 46.1931 -7.23114e-007 1.32944e-006 4.54269e-008 
9.49088e-005 -5.23012e-006 -0.00223486 31.7786 -19.8701 1.02375 5.79233 -14.0729 -3.85072 0 0 0 -22.6991 33.2172 -42.3673 -4.90938 9.41953 -1.35219 0 0 0 -68.1332 23.8489 38.7766 2.95188e-006 -35.3982 -5.33666e-007 0 0 0 -19.6847 -22.5401 -24.5622 29.3526 -0.925418 -14.1355 0 0 0 -11.1062 -28.7269 -58.6731 13.7347 9.10244 46.1284 0 0 0 
9.60536e-005 1.37657e-007 -0.00223445 32.3337 -18.9375 0.975712 7.16449 -14.5358 -3.60192 0 0 0 -26.6082 34.4316 -44.2732 -4.59837 9.64666 -1.27574 0 0 0 -69.4371 22.5292 39.8045 2.72049e-006 -34.0288 -2.27305e-006 0 0 0 -20.1837 -22.556 -24.9345 28.5517 -1.14024 -12.8005 0 0 0 -11.3174 -30.3366 -58.9538 14.363 9.76475 46.3938 0 0 0 
9.60536e-005 3.18569e-006 -0.00222981 32.6755 -19.4818 0.397039 6.85452 -13.455 -3.16187 0 0 0 -26.877 34.1059 -44.0676 -4.51117 9.37808 -1.2367 -2.96329e-007 -7.81055e-008 1.13636e-006 -69.2278 22.0334 36.0202 4.72223e-006 -24.8161 -8.48857e-006 0 0 0 -20.0132 -23.2267 -24.7544 29.3232 -1.01267 -11.9705 -2.4678e-007 3.06642e-007 1.19402e-006 -4.06986 17.1279 -33.6588 -37.0341 10.6958 14.9875 0 0 0 
9.60536e-005 4.49049e-006 -0.00222809 32.8087 -19.0091 0.149428 6.75592 -13.7978 -2.97961 0 0 0 -26.9427 33.9183 -44.0447 -4.70306 9.51577 -1.29268 0 0 0 -69.1971 21.6515 37.2683 -2.59656e-008 -24.7064 1.003e-006 0 0 0 -20.7237 -23.0708 -24.6231 29.1646 -0.944553 -11.0606 0 0 0 -4.13996 19.6262 -35.2061 -37.0438 12.0879 17.9916 3.01164e-007 3.96864e-007 2.5759e-007 
9.37504e-005 4.49049e-006 -0.00222464 32.318 -16.7461 -0.341805 6.37459 -15.0163 -3.25448 -1.00787e-006 1.21779e-006 6.8962e-008 -28.7073 32.8464 -44.4224 -2.44905 7.98942 -1.09055 0 0 0 -67.963 20.87 42.8752 -4.83557e-006 -24.7626 7.84712e-006 0 0 0 -21.7003 -22.4839 -21.7915 29.9892 -1.17457 -14.5342 -1.31242e-007 4.52076e-007 1.16611e-006 -6.54333 22.2322 -38.6075 -33.1847 16.3908 27.6608 0 0 0 
8.46085e-005 4.49049e-006 -0.00222274 30.2966 -16.348 -0.808862 4.00626 -14.3701 -3.97067 0 0 0 -27.2272 31.7374 -43.2573 -0.0170271 7.50696 -1.15976 3.61454e-008 -1.06189e-007 1.10505e-006 -64.0002 19.5259 40.2493 -4.65134e-006 -24.5071 6.97555e-006 0 0 0 -20.6891 -18.0835 -19.719 27.4546 -0.623459 -15.9982 0 0 0 -19.5839 22.9706 -53.3191 -21.4291 21.0988 47.0697 0 0 0 
8.16891e-005 3.78256e-006 -0.00222129 29.3324 -17.9735 -1.32111 2.96654 -12.3573 -4.30112 0 0 0 -27.5259 29.9211 -42.8331 -0.461687 6.52224 -1.45012 0 0 0 -63.4938 17.5198 43.4151 -3.33394e-006 -23.4677 7.68032e-006 0 0 0 -19.257 -16.7506 -19.6109 26.4438 -0.351258 -16.4332 0 0 0 -14.0062 6.49137 -55.5266 -12.6589 16.7183 47.176 0 0 0 
7.14797e-005 9.81808e-007 -0.00221979 26.5643 -21.9196 -1.9745 5.49953 -10.8085 -3.49235 0 0 0 -23.6033 32.0706 -40.2976 -2.67858 9.56053 -2.09777 0 0 0 -67.2285 13.886 40.8427 -2.1539 -21.746 0.285146 0 0 0 -15.781 -14.5935 -20.4148 23.1329 -0.711656 -16.319 0 0 0 -8.52117 -1.94538 -60.09 -2.99725 10.792 54.8477 -5.84221e-008 4.77595e-007 -8.46592e-008 
2.87632e-005 -9.80735e-006 -0.00218117 22.453 -27.1615 -8.0257 8.26539 -7.5443 2.85507 -1.43743e-006 1.12608e-006 -1.56319e-007 -23.1653 32.9098 -38.7293 -0.972689 10.5178 -2.1372 0 0 0 -70.1074 13.324 44.2272 -1.89348e-006 -26.3561 3.80713e-006 0 0 0 -11.2653 -8.67642 -8.65076 22.7134 2.88259 -18.4367 -3.64895e-007 7.25807e-007 1.25083e-006 -4.67899 6.15936 -47.1726 -5.40194 6.64363 54.3603 0 0 0 
2.35144e-005 -1.06391e-005 -0.00217861 21.7843 -28.8514 -8.70663 8.07578 -4.92092 1.03932 0 0 0 -20.4136 33.0383 -34.9729 -0.147007 10.8481 -2.08074 -8.35679e-008 -1.03803e-009 1.09151e-006 -69.4079 14.1603 42.2754 1.75818e-006 -24.4019 -2.83987e-006 0 0 0 -10.7359 -8.5387 -11.3602 23.9058 1.62704 -9.06603 1.39318e-007 9.54713e-007 1.24581e-007 -2.93127 7.5128 -46.082 -5.93416 6.31715 54.8898 -2.38129e-007 3.82928e-007 -4.16617e-007 
2.35144e-005 -1.06391e-005 -0.00216913 21.4178 -29.1626 -11.2679 8.18508 -4.4179 0.277276 0 0 0 -18.6563 33.6301 -31.1366 1.72448 12.4578 -2.06119 -1.03338e-007 -2.9543e-007 1.05188e-006 -68.8689 13.7714 44.1422 -2.22746 -21.78 -0.0593074 0 0 0 -10.5352 -5.92551 -9.33586 19.4776 0.896323 -7.92912 -1.27234e-007 1.08037e-006 1.82366e-007 -9.73414 15.5741 -45.2958 -17.1277 16.1569 45.7905 0 0 0 
2.35144e-005 -9.80735e-006 -0.0021638 20.9403 -28.4923 -12.3072 8.92136 -6.80762 1.64817 0 0 0 -20.2276 35.7938 -32.4901 1.70704 11.1451 -1.82161 0 0 0 -70.2108 13.9371 42.5317 -2.25081 -21.3974 0.0277058 0 0 0 -10.7439 -5.51151 -7.64049 19.0272 0.682144 -7.69937 -1.72446e-007 1.12703e-006 2.3364e-007 -9.33501 15.2188 -43.7531 -16.443 16.5779 46.3914 7.86171e-007 7.59091e-007 -2.54529e-008 
2.76388e-005 -6.59747e-006 -0.00216209 21.0713 -28.0351 -12.4832 9.14751 -7.47849 1.88717 0 0 0 -21.0228 35.9898 -32.9687 2.254 11.2533 -1.73859 0 0 0 -70.5901 14.3525 47.2896 -9.88805e-008 -22.9597 -6.29318e-006 0 0 0 -10.8671 -4.94033 -6.78436 17.7946 0.748504 -9.72531 0 0 0 -9.9327 14.5404 -43.8945 -15.9178 16.3666 46.581 0 0 0 
3.36788e-005 2.78599e-006 -0.00216072 21.531 -27.6376 -12.6469 8.34971 -7.58454 1.70844 0 0 0 -19.2317 35.5144 -31.8047 1.73766 11.5876 -1.74701 0 0 0 -70.2987 14.675 48.9812 1.88215e-006 -23.6199 -2.05764e-006 0 0 0 -11.3287 -4.18066 -6.14061 15.5728 0.453193 -11.4174 -3.44985e-007 1.25802e-006 8.12898e-008 -10.6901 13.3759 -43.9094 -15.4476 16.3844 46.2859 0 0 0 
3.78607e-005 1.5436e-005 -0.00215878 20.9749 -25.7283 -12.2035 8.65354 -9.21731 1.32857 0 0 0 -15.9352 35.1955 -29.6078 -1.09162 12.4554 -1.96298 0 0 0 -72.3814 14.0344 47.1377 3.26667e-006 -22.4315 -6.36796e-006 0 0 0 -10.1064 -2.26955 -4.14712 12.6857 0.166232 -3.96534 0 0 0 -11.5507 12.6822 -43.437 -15.1447 16.1171 45.9579 7.60887e-007 7.99563e-007 -6.43243e-008 
3.78607e-005 1.80241e-005 -0.00215742 20.6799 -25.6725 -11.6796 7.09791 -8.64507 0.844219 0 0 0 -15.1455 35.1426 -29.9463 -1.59163 10.9183 -1.97762 0 0 0 -71.3835 14.2261 47.5865 0.990342 -21.485 -0.106663 0 0 0 -10.0081 -2.32066 -4.39925 13.0151 0.229838 -3.73789 0 0 0 -11.5037 12.4604 -43.4972 -15.3607 15.6378 45.2534 7.68412e-007 7.72676e-007 -8.06769e-008 
3.78607e-005 1.83558e-005 -0.00215701 20.4111 -25.5547 -11.1699 5.59644 -8.80152 1.24172 0 0 0 -15.0559 35.4422 -31.4884 -2.10558 10.127 -2.05906 0 0 0 -70.7833 12.9484 47.098 -0.762038 -19.9293 0.547325 0 0 0 -9.81663 -2.25208 -4.74778 12.5529 0.152322 -2.92757 0 0 0 -11.4245 12.1768 -43.6446 -15.3378 15.7394 45.0812 7.61039e-007 7.80815e-007 -7.91593e-008 
3.00136e-005 1.91561e-005 -0.00215679 19.0294 -24.2702 -10.8534 6.01627 -10.2605 2.23412 0 0 0 -14.0315 34.1915 -31.6157 -3.0295 11.6712 -2.5264 0 0 0 -71.0621 12.1631 46.7199 -0.418895 -18.3727 0.553958 0 0 0 -8.22152 -2.09871 -3.98744 12.6932 0.203461 -2.95223 0 0 0 -10.2427 10.3535 -41.8968 -15.0698 15.4664 43.2469 7.82285e-007 7.93825e-007 -1.30132e-008 
2.37999e-005 2.04482e-005 -0.00215597 17.8115 -24.9277 -10.0812 7.68188 -10.4191 1.93409 0 0 0 -14.5197 35.0708 -31.7976 -2.95116 10.481 -2.22351 3.94394e-008 -9.5147e-008 1.08778e-006 -72.5033 12.6253 45.9483 -0.443894 -19.8901 0.871966 0 0 0 -6.67419 -2.18784 -4.43662 13.3011 0.196549 -1.93736 0 0 0 -8.9045 10.1485 -41.7914 -15.3 14.7349 42.2794 0 0 0 
